<?xml version="1.0" encoding="utf-8"?>
<!-- Generator: Adobe Illustrator 21.0.2, SVG Export Plug-In . SVG Version: 6.00 Build 0)  -->
<svg version="1.1" id="Layer_1" xmlns="http://www.w3.org/2000/svg" xmlns:xlink="http://www.w3.org/1999/xlink" x="0px" y="0px"
	 viewBox="0 0 250 250" style="enable-background:new 0 0 250 250;" xml:space="preserve">
<style type="text/css">
	.st0{fill:#FF0000;}
	.st1{fill:#DF0000;}
	.st2{fill:#FFFFFF;}
</style>
<polygon class="st0" points="122.2,25.4 122.2,25.4 122.2,25.4 29.1,58.6 43.3,181.7 122.2,225.4 122.2,225.4 122.2,225.4 
	201.1,181.7 215.3,58.6 "/>
<polygon class="st1" points="122.2,25.4 122.2,47.6 122.2,47.5 122.2,148.8 122.2,148.8 122.2,225.4 122.2,225.4 201.1,181.7 
	215.3,58.6 "/>
<g>
	<path class="st2" d="M155.8,92.5c1.9,0.2,6,0.2,9.7,4.1c0,0,2.9,2.9,3.8,9.5c1,7.8,1,15.6,1,15.6v7.3c0,0,0.1,7.8-1,15.6
		c-0.9,6.6-3.8,9.5-3.8,9.5c-3.6,3.8-7.8,3.8-9.7,4c0,0-13.4,1-33.6,1c-25-0.2-32.7-1-32.7-1c-2.1-0.4-7-0.3-10.6-4.1
		c0,0-2.9-2.9-3.8-9.5c-1-7.8-1-15.6-1-15.6v-7.3c0,0-0.1-7.8,1-15.6c0.9-6.7,3.8-9.5,3.8-9.5c3.6-3.9,7.8-3.9,9.7-4.1
		c0,0,13.4-1,33.6-1S155.8,92.5,155.8,92.5z M138.2,124.4l-26-13.6v27L138.2,124.4z"/>
</g>
</svg>
